<?xml version="1.0"?>
<svg xmlns:rdf="http://www.w3.org/1999/02/22-rdf-syntax-ns#" xmlns="http://www.w3.org/2000/svg" xmlns:cc="http://creativecommons.org/ns#" xmlns:xlink="http://www.w3.org/1999/xlink" xmlns:dc="http://purl.org/dc/elements/1.1/" xmlns:svg="http://www.w3.org/2000/svg" id="svg2" viewBox="0 0 350.2 886.82" version="1.0">
  <defs id="defs4">
    <linearGradient id="linearGradient26711">
      <stop id="stop26713" stop-color="#4c4c4c" offset="0"/>
      <stop id="stop26715" stop-color="#ebebeb" offset=".5"/>
      <stop id="stop26717" stop-color="#6e6e6e" offset="1"/>
    </linearGradient>
    <linearGradient id="linearGradient3869" x1="-166.79" xlink:href="#linearGradient26711" gradientUnits="userSpaceOnUse" y1="69.505" gradientTransform="matrix(.34783 0 0 1 -114.13 0)" x2="-166.79" y2="24.505"/>
    <linearGradient id="linearGradient3871" x1="-67.5" xlink:href="#linearGradient26711" gradientUnits="userSpaceOnUse" y1="38.434" gradientTransform="translate(-68.571 25)" x2="-67.5" y2="1.7908"/>
    <radialGradient id="radialGradient3893" gradientUnits="userSpaceOnUse" cy="619.24" cx="-884.4" gradientTransform="matrix(.0099249 1.3103 -1.2232 .0092649 851.29 1858.1)" r="218.05">
      <stop id="stop3542" stop-color="#eaad00" offset="0"/>
      <stop id="stop3544" stop-color="#be5600" offset=".56395"/>
      <stop id="stop3546" offset="1"/>
    </radialGradient>
    <radialGradient id="radialGradient3895" gradientUnits="userSpaceOnUse" cy="619.24" cx="-822.93" gradientTransform="matrix(-2.5896e-7 .98201 -1.1892 -3.9781e-7 821.43 1573.8)" r="218.05">
      <stop id="stop3552" stop-color="#eaad00" stop-opacity="0" offset="0"/>
      <stop id="stop3554" stop-color="#be5600" stop-opacity="0" offset=".56395"/>
      <stop id="stop3556" stop-opacity=".29661" offset="1"/>
    </radialGradient>
    <radialGradient id="radialGradient3897" gradientUnits="userSpaceOnUse" cy="264.44" cx="-585.89" gradientTransform="matrix(1 0 0 .95315 0 12.388)" r="86.251">
      <stop id="stop29682" stop-color="#242424" offset="0"/>
      <stop id="stop29684" stop-color="#ebebeb" offset=".5"/>
      <stop id="stop29688" stop-color="#c4c4c4" offset=".7957"/>
      <stop id="stop29686" stop-color="#595959" offset="1"/>
    </radialGradient>
  </defs>
  <g id="layer1" transform="translate(-181.38 -78.49)">
    <g id="g3743" transform="matrix(.80301 0 0 .80301 288.18 125.84)">
      <g id="g3675" stroke-width="0" transform="matrix(-.34750 0 0 .34750 65.222 56.756)">
        <path id="path3677" d="m-231.22 6.6395c-16.23 7.2555-27.34 21.816-27.34 38.588s11.11 31.333 27.34 38.588 20.74 1.02 26.94-3.43c10.51-7.552 8-35.158 8-35.158s2.51-27.607-8-35.158c-6.2-4.4511-26.94-3.4305-26.94-3.4305z"/>
        <g id="g3679" transform="matrix(.48544 0 0 .50794 -111.48 22.772)">
          <rect id="rect3681" rx="1.5786" ry="9.2266" height="45" width="5.7143" y="24.505" x="-175" fill="url(#linearGradient3869)"/>
          <path id="path3683" fill="url(#linearGradient3871)" d="m-169.14 28.791l66.13-2c0.88 0 1.58 6.115 1.58 11.226v19.404c0 5.112-0.7 11.227-1.58 11.227l-66.13-2c-0.87 0-1.57-4.115-1.57-9.227v-19.404c0-5.111 0.7-9.226 1.57-9.226z"/>
        </g>
        <path id="path3685" fill="#ccc" d="m-257.16 35.746c-0.92 3.271-1.4 6.675-1.4 10.187s0.48 6.947 1.4 10.219v-20.406z"/>
      </g>
      <g id="g3687" stroke-width="0" transform="matrix(-.34750 0 0 .34750 69.222 14.756)">
        <path id="path3689" d="m-231.22 6.6395c-16.23 7.2555-27.34 21.816-27.34 38.588s11.11 31.333 27.34 38.588 20.74 1.02 26.94-3.43c10.51-7.552 8-35.158 8-35.158s2.51-27.607-8-35.158c-6.2-4.4511-26.94-3.4305-26.94-3.4305z"/>
        <g id="g3691" transform="matrix(.48544 0 0 .50794 -111.48 22.772)">
          <rect id="rect3693" rx="1.5786" ry="9.2266" height="45" width="5.7143" y="24.505" x="-175" fill="url(#linearGradient3869)"/>
          <path id="path3695" fill="url(#linearGradient3871)" d="m-169.14 28.791l66.13-2c0.88 0 1.58 6.115 1.58 11.226v19.404c0 5.112-0.7 11.227-1.58 11.227l-66.13-2c-0.87 0-1.57-4.115-1.57-9.227v-19.404c0-5.111 0.7-9.226 1.57-9.226z"/>
        </g>
        <path id="path3697" fill="#ccc" d="m-257.16 35.746c-0.92 3.271-1.4 6.675-1.4 10.187s0.48 6.947 1.4 10.219v-20.406z"/>
      </g>
      <g id="g3699" stroke-width="0" transform="matrix(-.34750 0 0 .34750 71.222 -27.244)">
        <path id="path3701" d="m-231.22 6.6395c-16.23 7.2555-27.34 21.816-27.34 38.588s11.11 31.333 27.34 38.588 20.74 1.02 26.94-3.43c10.51-7.552 8-35.158 8-35.158s2.51-27.607-8-35.158c-6.2-4.4511-26.94-3.4305-26.94-3.4305z"/>
        <g id="g3703" transform="matrix(.48544 0 0 .50794 -111.48 22.772)">
          <rect id="rect3705" rx="1.5786" ry="9.2266" height="45" width="5.7143" y="24.505" x="-175" fill="url(#linearGradient3869)"/>
          <path id="path3707" fill="url(#linearGradient3871)" d="m-169.14 28.791l66.13-2c0.88 0 1.58 6.115 1.58 11.226v19.404c0 5.112-0.7 11.227-1.58 11.227l-66.13-2c-0.87 0-1.57-4.115-1.57-9.227v-19.404c0-5.111 0.7-9.226 1.57-9.226z"/>
        </g>
        <path id="path3709" fill="#ccc" d="m-257.16 35.746c-0.92 3.271-1.4 6.675-1.4 10.187s0.48 6.947 1.4 10.219v-20.406z"/>
      </g>
      <g id="g3659" stroke-width="0" transform="matrix(.34750 0 0 .34750 108.35 56.756)">
        <path id="path3661" d="m-231.22 6.6395c-16.23 7.2555-27.34 21.816-27.34 38.588s11.11 31.333 27.34 38.588 20.74 1.02 26.94-3.43c10.51-7.552 8-35.158 8-35.158s2.51-27.607-8-35.158c-6.2-4.4511-26.94-3.4305-26.94-3.4305z"/>
        <g id="g3663" transform="matrix(.48544 0 0 .50794 -111.48 22.772)">
          <rect id="rect3665" rx="1.5786" ry="9.2266" height="45" width="5.7143" y="24.505" x="-175" fill="url(#linearGradient3869)"/>
          <path id="path3667" fill="url(#linearGradient3871)" d="m-169.14 28.791l66.13-2c0.88 0 1.58 6.115 1.58 11.226v19.404c0 5.112-0.7 11.227-1.58 11.227l-66.13-2c-0.87 0-1.57-4.115-1.57-9.227v-19.404c0-5.111 0.7-9.226 1.57-9.226z"/>
        </g>
        <path id="path3669" fill="#ccc" d="m-257.16 35.746c-0.92 3.271-1.4 6.675-1.4 10.187s0.48 6.947 1.4 10.219v-20.406z"/>
      </g>
      <g id="g3643" stroke-width="0" transform="matrix(.34750 0 0 .34750 104.35 14.756)">
        <path id="path3645" d="m-231.22 6.6395c-16.23 7.2555-27.34 21.816-27.34 38.588s11.11 31.333 27.34 38.588 20.74 1.02 26.94-3.43c10.51-7.552 8-35.158 8-35.158s2.51-27.607-8-35.158c-6.2-4.4511-26.94-3.4305-26.94-3.4305z"/>
        <g id="g3647" transform="matrix(.48544 0 0 .50794 -111.48 22.772)">
          <rect id="rect3649" rx="1.5786" ry="9.2266" height="45" width="5.7143" y="24.505" x="-175" fill="url(#linearGradient3869)"/>
          <path id="path3651" fill="url(#linearGradient3871)" d="m-169.14 28.791l66.13-2c0.88 0 1.58 6.115 1.58 11.226v19.404c0 5.112-0.7 11.227-1.58 11.227l-66.13-2c-0.87 0-1.57-4.115-1.57-9.227v-19.404c0-5.111 0.7-9.226 1.57-9.226z"/>
        </g>
        <path id="path3653" fill="#ccc" d="m-257.16 35.746c-0.92 3.271-1.4 6.675-1.4 10.187s0.48 6.947 1.4 10.219v-20.406z"/>
      </g>
      <g id="g3628" stroke-width="0" transform="matrix(.34750 0 0 .34750 102.35 -27.244)">
        <path id="path3572" d="m-231.22 6.6395c-16.23 7.2555-27.34 21.816-27.34 38.588s11.11 31.333 27.34 38.588 20.74 1.02 26.94-3.43c10.51-7.552 8-35.158 8-35.158s2.51-27.607-8-35.158c-6.2-4.4511-26.94-3.4305-26.94-3.4305z"/>
        <g id="g3611" transform="matrix(.48544 0 0 .50794 -111.48 22.772)">
          <rect id="rect3582" rx="1.5786" ry="9.2266" height="45" width="5.7143" y="24.505" x="-175" fill="url(#linearGradient3869)"/>
          <path id="rect3594" fill="url(#linearGradient3871)" d="m-169.14 28.791l66.13-2c0.88 0 1.58 6.115 1.58 11.226v19.404c0 5.112-0.7 11.227-1.58 11.227l-66.13-2c-0.87 0-1.57-4.115-1.57-9.227v-19.404c0-5.111 0.7-9.226 1.57-9.226z"/>
        </g>
        <path id="path3623" fill="#ccc" d="m-257.16 35.746c-0.92 3.271-1.4 6.675-1.4 10.187s0.48 6.947 1.4 10.219v-20.406z"/>
      </g>
      <path id="path2711" d="m85.046 486.34c120.39 1.97 166.23 40.59 166.23 88.95 0 69.95-39.47 65-37.5 122.24 1.78 51.63 88.82 116.42 88.82 195.4 0 136.17-148.03 151.97-217.55 151.97-69.529 0-217.56-15.8-217.56-151.97 0-78.98 87.039-143.77 88.819-195.4 1.974-57.24-38.899-52.31-37.501-122.24 0.987-49.34 45.841-86.98 166.24-88.95h-0.002z" fill-rule="evenodd" stroke="#999" stroke-width="1px" fill="url(#radialGradient3893)"/>
      <path id="path3548" d="m85.046 487.51c117.04 1.96 163.75 40.42 163.75 88.58 0 69.66-39.09 63.31-37.17 120.31 1.73 51.41 88.48 116.66 88.48 195.31 0 135.59-147.48 152.09-215.06 152.09-67.592 0-215.78-15.7-215.78-151.37 0-78.65 87.609-143.33 89.34-194.74 1.919-57.01-39.387-52.52-38.028-122.17 0.96-49.14 47.421-86.05 164.46-88.01h0.004z" fill-rule="evenodd" stroke="#fffffb" stroke-width="1.803" fill="url(#radialGradient3895)"/>
      <path id="path3993" fill="#280b0b" d="m34.885-51.842l11.252 150.31 19.823 37.582-3.582 3.03 43.562 1.51 1.97-4.79 19.57-37.332 11.25-150.31s-36.36-7.124-51.941-7.124c-15.578 0-51.904 7.124-51.904 7.124z"/>
      <path id="path3995" transform="translate(935.22 659.11)" d="m-793.44 37.501a55.264 55.264 0 1 1 -110.53 0 55.264 55.264 0 1 1 110.53 0z"/>
      <g id="g3997" transform="translate(362.88 484.56)">
        <g id="g3999">
          <path id="path4001" d="m-278.47 140.19c-0.39 0.01-0.77 0.03-1.16 0.05l-0.71 14.34c1.21-0.08 2.43-0.13 3.67-0.13l-1.8-14.26zm6.41 0.11l-2.22 14.17c1.23 0.05 2.45 0.16 3.66 0.28l-0.27-14.37c-0.39-0.03-0.77-0.06-1.17-0.08zm-11.35 0.21c-0.39 0.04-0.78 0.09-1.17 0.14l0.3 14.34c1.2-0.16 2.42-0.29 3.64-0.38l-2.77-14.1zm16.3 0.27l-3.18 13.99c1.21 0.13 2.42 0.29 3.61 0.49l0.71-14.34c-0.38-0.05-0.76-0.09-1.14-0.14zm-23.8 0.87c-0.37 0.08-0.76 0.14-1.14 0.22l1.79 14.26c1.18-0.29 2.36-0.54 3.56-0.76l-4.21-13.72zm31.24 0.47l-4.64 13.6c1.2 0.26 2.38 0.54 3.55 0.87l2.23-14.18c-0.38-0.09-0.76-0.2-1.14-0.29zm-36.07 0.7c-0.37 0.11-0.75 0.22-1.12 0.33l2.77 14.07c1.16-0.37 2.33-0.71 3.51-1.01l-5.16-13.39zm40.85 0.65l-5.57 13.21c1.18 0.33 2.34 0.7 3.48 1.11l3.2-13.96c-0.36-0.13-0.74-0.24-1.11-0.36zm-48.05 1.8c-0.36 0.14-0.73 0.28-1.09 0.43l4.27 13.69c1.1-0.49 2.23-0.96 3.37-1.38l-6.55-12.74zm55.14 0.84l-6.9 12.55c1.13 0.46 2.25 0.96 3.34 1.49l4.62-13.55c-0.35-0.16-0.7-0.34-1.06-0.49zm-59.68 1.14c-0.35 0.17-0.68 0.37-1.03 0.54l5.16 13.37c1.08-0.58 2.17-1.13 3.29-1.63l-7.42-12.28zm64.16 1l-7.77 12.04c1.1 0.53 2.18 1.11 3.24 1.71l5.56-13.23c-0.33-0.18-0.69-0.34-1.03-0.52zm-70.81 2.64c-0.33 0.2-0.63 0.42-0.95 0.62l6.54 12.74c1.01-0.67 2.03-1.31 3.07-1.93l-8.66-11.43zm77.36 1.19l-8.99 11.17c1.03 0.65 2.03 1.33 3.01 2.04l6.93-12.55c-0.32-0.22-0.63-0.44-0.95-0.66zm-81.46 1.58c-0.32 0.23-0.64 0.45-0.95 0.68l7.44 12.25c0.96-0.75 1.93-1.46 2.93-2.15l-9.42-10.78zm85.48 1.3l-9.73 10.52c0.99 0.71 1.95 1.45 2.88 2.22l7.77-12c-0.31-0.25-0.61-0.5-0.92-0.74zm-91.41 3.43c-0.29 0.26-0.58 0.52-0.86 0.78l8.66 11.44c0.88-0.85 1.78-1.68 2.72-2.47l-10.52-9.75zm97.17 1.46l-10.79 9.43c0.91 0.82 1.78 1.68 2.64 2.55l8.99-11.16c-0.28-0.27-0.56-0.55-0.84-0.82zm-100.75 1.96c-0.27 0.28-0.55 0.56-0.82 0.84l9.43 10.78c0.81-0.89 1.66-1.76 2.53-2.6l-11.14-9.02zm104.22 1.57l-11.4 8.67c0.84 0.87 1.65 1.79 2.44 2.72l9.75-10.52c-0.26-0.29-0.52-0.58-0.79-0.87zm-109.22 4.13c-0.24 0.31-0.49 0.61-0.73 0.93l10.51 9.72c0.72-0.99 1.48-1.94 2.25-2.88l-12.03-7.77zm114.06 1.71l-12.25 7.42c0.75 0.97 1.48 1.95 2.17 2.96l10.79-9.42c-0.23-0.32-0.48-0.64-0.71-0.96zm-117.02 2.29c-0.22 0.32-0.44 0.65-0.65 0.97l11.16 8.97c0.65-1.03 1.33-2.03 2.04-3.02l-12.55-6.92zm119.84 1.79l-12.74 6.55c0.69 1.01 1.31 2.06 1.93 3.12l11.44-8.67c-0.21-0.33-0.41-0.67-0.63-1zm-123.81 4.64c-0.18 0.34-0.33 0.69-0.51 1.04l12.03 7.76c0.54-1.09 1.11-2.15 1.71-3.2l-13.23-5.6zm127.56 1.96l-13.36 5.16c0.57 1.08 1.1 2.17 1.6 3.29l12.28-7.42c-0.17-0.35-0.34-0.69-0.52-1.03zm-129.73 2.5c-0.16 0.35-0.33 0.7-0.49 1.06l12.55 6.92c0.46-1.11 0.95-2.23 1.47-3.31l-13.53-4.67zm131.82 1.98l-13.71 4.24c0.49 1.11 0.96 2.25 1.38 3.39l12.77-6.54c-0.15-0.36-0.29-0.73-0.44-1.09zm-134.62 5.08c-0.12 0.37-0.23 0.74-0.35 1.11l13.23 5.55c0.34-1.17 0.71-2.32 1.11-3.45l-13.99-3.21zm137.18 2.07l-14.1 2.77c0.37 1.15 0.73 2.32 1.03 3.5l13.39-5.16c-0.1-0.38-0.21-0.74-0.32-1.11zm-138.56 2.68c-0.1 0.39-0.21 0.76-0.3 1.15l13.61 4.64c0.25-1.2 0.54-2.36 0.87-3.53l-14.18-2.26zm139.81 2.1l-14.24 1.82c0.3 1.17 0.55 2.35 0.76 3.55l13.72-4.23c-0.08-0.38-0.16-0.77-0.24-1.14zm-141.31 5.37c-0.05 0.38-0.11 0.76-0.16 1.15l14.02 3.17c0.12-1.21 0.28-2.42 0.49-3.61l-14.35-0.71zm142.56 2.12l-14.35 0.3c0.17 1.2 0.29 2.42 0.39 3.64l14.09-2.77c-0.04-0.39-0.09-0.78-0.13-1.17zm-128.73 2.53l-14.37 0.27c-0.03 0.39-0.06 0.78-0.08 1.17l14.18 2.2c0.04-1.22 0.15-2.44 0.27-3.64zm114.79 1.71c0.09 1.21 0.16 2.42 0.17 3.64l14.23-1.77c-0.01-0.39-0.04-0.77-0.06-1.16l-14.34-0.71zm-115.09 4.37l-14.23 1.77c0.01 0.39 0.04 0.78 0.05 1.17l14.32 0.7c-0.09-1.2-0.13-2.41-0.14-3.64zm115.2 1.72c-0.04 1.22-0.12 2.43-0.24 3.64l14.34-0.28c0.03-0.39 0.06-0.77 0.08-1.16l-14.18-2.2zm-115.04 2.25l-14.09 2.77c0.03 0.38 0.09 0.76 0.13 1.14l14.35-0.3c-0.17-1.19-0.29-2.4-0.39-3.61zm114.77 1.71c-0.13 1.21-0.29 2.43-0.49 3.61l14.32 0.71c0.05-0.39 0.11-0.78 0.16-1.17l-13.99-3.15zm-113.98 4.32l-13.74 4.24 0.24 1.14 14.24-1.82c-0.29-1.17-0.52-2.36-0.74-3.56zm113.03 1.68c-0.25 1.19-0.55 2.35-0.87 3.51l14.18 2.25c0.09-0.37 0.18-0.76 0.27-1.14l-13.58-4.62zm-112.21 2.2l-13.39 5.17c0.1 0.37 0.24 0.73 0.35 1.11l14.07-2.74c-0.38-1.17-0.73-2.34-1.03-3.54zm111.23 1.66c-0.33 1.16-0.68 2.32-1.09 3.45l13.97 3.21c0.12-0.37 0.26-0.75 0.38-1.12l-13.26-5.54zm-109.41 4.16l-12.74 6.52c0.14 0.36 0.28 0.72 0.43 1.08l13.69-4.23c-0.49-1.11-0.96-2.23-1.38-3.37zm107.43 1.57c-0.46 1.13-0.94 2.25-1.47 3.34l13.53 4.65c0.16-0.36 0.33-0.7 0.49-1.06l-12.55-6.93zm-105.91 2.09l-12.28 7.39v0.03c0.17 0.35 0.34 0.69 0.52 1.03l13.36-5.16c-0.57-1.07-1.1-2.18-1.6-3.29zm104.28 1.55c-0.53 1.09-1.09 2.16-1.69 3.21l13.21 5.59c0.18-0.34 0.36-0.69 0.54-1.03l-12.06-7.77zm-101.48 3.86l-11.44 8.64c0.21 0.34 0.44 0.67 0.65 1l12.71-6.54c-0.68-1.01-1.31-2.05-1.92-3.1zm98.54 1.44c-0.64 1.03-1.32 2.03-2.03 3.01l12.55 6.93c0.21-0.32 0.44-0.63 0.65-0.95l-11.17-8.99zm-96.42 1.93l-10.79 9.4c0.23 0.31 0.45 0.63 0.68 0.95l12.25-7.42c-0.75-0.95-1.46-1.93-2.14-2.93zm94.2 1.36c-0.72 0.98-1.45 1.94-2.23 2.88l12.01 7.76c0.24-0.31 0.49-0.61 0.73-0.92l-10.51-9.72zm-90.48 3.47l-9.76 10.49c0.27 0.29 0.53 0.58 0.79 0.87l11.41-8.67c-0.84-0.87-1.66-1.77-2.44-2.69zm86.65 1.25c-0.82 0.91-1.66 1.79-2.53 2.64l11.14 8.99c0.27-0.28 0.54-0.56 0.81-0.84l-9.42-10.79zm-83.99 1.69l-8.99 11.13c0.28 0.28 0.56 0.55 0.84 0.82l10.78-9.43c-0.9-0.81-1.78-1.65-2.63-2.52zm81.22 1.16c-0.87 0.85-1.77 1.66-2.69 2.45l10.48 9.75c0.29-0.26 0.58-0.52 0.87-0.79l-8.66-11.41zm-76.77 2.94l-7.77 12.03c0.31 0.24 0.62 0.47 0.93 0.71l9.72-10.49c-0.99-0.72-1.94-1.47-2.88-2.25zm72.18 1.06c-0.97 0.75-1.93 1.48-2.94 2.17l9.43 10.78c0.31-0.22 0.64-0.44 0.95-0.67l-7.44-12.28zm-69.03 1.38l-6.92 12.53c0.32 0.21 0.63 0.43 0.95 0.65l8.99-11.14c-1.03-0.65-2.03-1.33-3.02-2.04zm65.82 0.98c-1 0.68-2.02 1.32-3.07 1.93l8.64 11.41c0.33-0.21 0.65-0.42 0.98-0.63l-6.55-12.71zm-60.71 2.28l-5.57 13.23c0.34 0.18 0.69 0.34 1.03 0.52l7.75-12.04c-1.1-0.53-2.16-1.11-3.21-1.71zm55.52 0.82c-1.07 0.57-2.17 1.12-3.28 1.63l7.41 12.27c0.35-0.16 0.69-0.36 1.03-0.54l-5.16-13.36zm-52.02 1.06l-4.61 13.55c0.35 0.16 0.7 0.34 1.06 0.49l6.9-12.55c-1.13-0.46-2.25-0.97-3.35-1.49zm48.44 0.68c-1.11 0.49-2.22 0.98-3.37 1.41l6.52 12.71c0.37-0.15 0.75-0.25 1.11-0.41l-4.26-13.71zm-42.79 1.68l-3.2 13.96c0.36 0.12 0.72 0.24 1.09 0.36l5.56-13.23c-1.16-0.34-2.31-0.69-3.45-1.09zm37.11 0.52c-1.15 0.37-2.3 0.73-3.48 1.03l5.14 13.34c0.37-0.11 0.74-0.19 1.11-0.3l-2.77-14.07zm-33.33 0.68l-2.23 14.15c0.38 0.09 0.76 0.18 1.14 0.27l4.65-13.56c-1.21-0.25-2.38-0.54-3.56-0.86zm29.5 0.43c-1.17 0.29-2.36 0.51-3.56 0.73l4.21 13.72c0.38-0.08 0.76-0.16 1.14-0.24l-1.79-14.21zm-23.58 0.87l-0.73 14.31c0.39 0.06 0.78 0.12 1.17 0.17l3.15-13.96c-1.21-0.13-2.4-0.32-3.59-0.52zm17.6 0.27c-1.19 0.17-2.4 0.29-3.61 0.38l2.74 14.07c0.39-0.04 0.79-0.09 1.17-0.13l-0.3-14.32zm-13.66 0.3l0.27 14.29c0.39 0.03 0.78 0.06 1.17 0.08l2.2-14.15c-1.22-0.05-2.44-0.1-3.64-0.22zm9.73 0.11c-1.21 0.08-2.42 0.15-3.64 0.16l1.76 14.21c0.39-0.01 0.78-0.04 1.17-0.06l0.71-14.31z" fill="#ce9b6c"/>
          <path id="path4003" d="m-270.11 140.43c-0.4-0.04-0.78-0.06-1.17-0.09l-2.36 14.17c1.21 0.06 2.43 0.15 3.66 0.29l-0.13-14.37zm6.35 0.85l-3.85 13.82c1.22 0.19 2.41 0.43 3.61 0.7l1.39-14.31c-0.38-0.07-0.76-0.15-1.15-0.21zm-11.3-1.1c-0.4-0.01-0.78 0-1.18 0l-1.36 14.28c1.21-0.03 2.43-0.01 3.66 0.04l-1.12-14.32zm16.15 2.15l-4.77 13.53c1.19 0.27 2.37 0.57 3.53 0.91l2.36-14.17c-0.37-0.1-0.74-0.17-1.12-0.27zm-23.73-1.89c-0.38 0.03-0.78 0.05-1.16 0.08l0.13 14.38c1.2-0.16 2.4-0.27 3.62-0.35l-2.59-14.11zm30.97 4.08l-6.19 12.98c1.17 0.39 2.31 0.81 3.44 1.27l3.85-13.82c-0.36-0.14-0.73-0.3-1.1-0.43zm-35.91-3.48c-0.38 0.06-0.76 0.13-1.14 0.2l1.12 14.29c1.19-0.23 2.39-0.43 3.6-0.59l-3.58-13.9zm40.5 5.38l-7.06 12.47c1.13 0.47 2.24 0.97 3.33 1.51l4.8-13.5c-0.35-0.16-0.71-0.32-1.07-0.48zm-47.93-3.78c-0.38 0.1-0.76 0.19-1.13 0.3l2.65 14.09c1.15-0.36 2.33-0.7 3.51-0.98l-5.03-13.41zm54.67 7.22l-8.31 11.67c1.08 0.58 2.12 1.21 3.15 1.87l6.16-12.93c-0.33-0.2-0.66-0.42-1-0.61zm-59.41-5.78c-0.37 0.13-0.72 0.29-1.09 0.42l3.58 13.87c1.14-0.44 2.29-0.86 3.46-1.24l-5.95-13.05zm63.61 8.43l-9.11 11.05c1.03 0.66 2.04 1.36 3.02 2.08l7.06-12.5c-0.32-0.22-0.65-0.41-0.97-0.63zm-70.64-5.59c-0.34 0.17-0.67 0.35-1.02 0.51l5.03 13.42c1.07-0.56 2.16-1.08 3.27-1.56l-7.28-12.37zm76.7 10.15l-10.22 10.05c0.95 0.76 1.86 1.55 2.76 2.37l8.33-11.66c-0.29-0.25-0.57-0.51-0.87-0.76zm-81.09-7.87c-0.34 0.19-0.69 0.37-1.03 0.57l5.98 13.03c1.03-0.63 2.08-1.23 3.16-1.8l-8.11-11.8zm84.75 11.2l-10.87 9.31c0.89 0.83 1.76 1.67 2.6 2.55l9.1-11.03c-0.27-0.28-0.54-0.56-0.83-0.83zm-91.18-7.19c-0.32 0.22-0.64 0.45-0.96 0.68l7.28 12.36c0.98-0.74 1.97-1.46 2.99-2.14l-9.31-10.9zm96.34 12.71l-11.81 8.11c0.81 0.92 1.58 1.88 2.32 2.85l10.23-10.05c-0.25-0.3-0.49-0.61-0.74-0.91zm-100.3-9.73c-0.3 0.25-0.61 0.5-0.91 0.75l8.12 11.8c0.91-0.8 1.85-1.56 2.81-2.3l-10.02-10.25zm103.34 13.64l-12.34 7.29c0.74 0.96 1.44 1.97 2.12 2.98l10.9-9.31c-0.22-0.32-0.45-0.64-0.68-0.96zm-108.97-8.55c-0.27 0.28-0.56 0.55-0.83 0.83l9.31 10.88c0.83-0.9 1.69-1.76 2.58-2.6l-11.06-9.11zm113.1 14.91l-13.03 5.95c0.64 1.05 1.24 2.1 1.81 3.19l11.81-8.11c-0.19-0.35-0.4-0.69-0.59-1.03zm-116.5-11.29c-0.26 0.3-0.51 0.6-0.76 0.9l10.05 10.2c0.76-0.95 1.55-1.87 2.37-2.76l-11.66-8.34zm118.83 15.67l-13.41 5.02c0.56 1.09 1.06 2.21 1.55 3.33l12.36-7.28c-0.16-0.36-0.33-0.72-0.5-1.07zm-123.51-9.73c-0.23 0.31-0.42 0.65-0.64 0.96l11.06 9.11c0.65-1.02 1.35-2.01 2.07-2.98l-12.49-7.09zm126.47 16.72l-13.87 3.58c0.44 1.13 0.84 2.28 1.21 3.45l13.05-5.95c-0.12-0.36-0.26-0.72-0.39-1.08zm-129.15-12.55c-0.2 0.34-0.41 0.66-0.61 1l11.67 8.33c0.58-1.06 1.19-2.11 1.84-3.12l-12.9-6.21zm130.71 17.24l-14.12 2.62c0.36 1.16 0.69 2.35 0.98 3.53l13.44-5.02c-0.1-0.38-0.2-0.75-0.3-1.13zm-134.31-10.55c-0.16 0.35-0.32 0.71-0.48 1.07l12.5 7.03c0.47-1.12 0.97-2.21 1.51-3.29l-13.53-4.81zm136.02 17.94l-14.33 1.12c0.24 1.19 0.46 2.39 0.62 3.6l13.9-3.57c-0.06-0.39-0.13-0.76-0.19-1.15zm-137.94-13.38c-0.14 0.37-0.3 0.73-0.43 1.1l12.98 6.19c0.39-1.16 0.81-2.28 1.27-3.4l-13.82-3.89zm138.62 18.28l-14.35 0.16c0.16 1.2 0.27 2.4 0.35 3.62l14.11-2.62c-0.03-0.39-0.07-0.78-0.11-1.16zm-140.97-11.03l-0.3 1.11 13.56 4.79c0.27-1.2 0.56-2.38 0.9-3.54l-14.16-2.36zm141.35 18.62l-14.28-1.37c0.02 1.22 0 2.44-0.05 3.66l14.33-1.12v-1.17zm-128.16-12.4l-14.3-1.4c-0.07 0.38-0.15 0.77-0.22 1.15l13.83 3.83c0.19-1.21 0.44-2.41 0.69-3.58zm113.82 14.99c-0.05 1.21-0.12 2.42-0.26 3.64l14.35-0.11c0.03-0.39 0.05-0.77 0.08-1.16l-14.17-2.37zm-114.82-8.99l-14.34 0.11c-0.03 0.39-0.05 0.78-0.08 1.17l14.14 2.36c0.05-1.21 0.15-2.42 0.28-3.64zm114.23 15.05c-0.19 1.21-0.41 2.4-0.67 3.59l14.28 1.39c0.07-0.39 0.15-0.77 0.22-1.15l-13.83-3.83zm-114.53-11.09l-14.32 1.12c-0.01 0.39 0 0.77 0 1.15l14.28 1.37c-0.02-1.21-0.01-2.42 0.04-3.64zm113.8 15c-0.27 1.18-0.57 2.37-0.91 3.53l14.14 2.36 0.3-1.14-13.53-4.75zm-113.71-8.92l-14.14 2.62c0.03 0.39 0.07 0.77 0.11 1.16l14.34-0.16c-0.15-1.19-0.23-2.4-0.31-3.62zm112.07 14.77c-0.39 1.14-0.82 2.27-1.27 3.38l13.82 3.88c0.14-0.36 0.27-0.74 0.4-1.1l-12.95-6.16zm-111.71-10.81l-13.9 3.57c0.06 0.39 0.15 0.76 0.22 1.15l14.29-1.1c-0.24-1.2-0.45-2.4-0.61-3.62zm110.29 14.53c-0.47 1.11-0.95 2.22-1.48 3.3l13.5 4.8c0.16-0.35 0.35-0.71 0.5-1.06l-12.52-7.04zm-109.16-8.55l-13.41 5c0.1 0.38 0.2 0.76 0.31 1.13l14.09-2.62c-0.36-1.16-0.7-2.32-0.99-3.51zm106.53 14.01c-0.59 1.07-1.2 2.12-1.85 3.15l12.9 6.18c0.2-0.33 0.41-0.66 0.61-1l-11.66-8.33zm-105.44-10.19l-13.05 5.92s-0.01 0.01-0.01 0.02c0.13 0.37 0.27 0.73 0.4 1.09l13.87-3.58c-0.44-1.13-0.84-2.29-1.21-3.45zm103.4 13.62c-0.66 1.01-1.34 2.02-2.05 2.99l12.47 7.08c0.22-0.31 0.44-0.64 0.66-0.96l-11.08-9.11zm-101.25-7.93l-12.36 7.26c0.17 0.36 0.36 0.71 0.53 1.07l13.39-5.03c-0.56-1.08-1.07-2.18-1.56-3.3zm97.72 12.85c-0.76 0.95-1.56 1.86-2.37 2.76l11.66 8.33c0.25-0.29 0.51-0.57 0.76-0.87l-10.05-10.22zm-96-9.26l-11.8 8.09c0.19 0.34 0.36 0.68 0.56 1.02l13.03-5.94c-0.63-1.04-1.23-2.09-1.79-3.17zm93.41 12.26c-0.83 0.9-1.67 1.77-2.55 2.61l11.03 9.1c0.27-0.28 0.56-0.55 0.83-0.83l-9.31-10.88zm-90.28-7.02l-10.9 9.28c0.23 0.32 0.45 0.64 0.68 0.96l12.34-7.29c-0.74-0.96-1.45-1.95-2.12-2.95zm85.92 11.28c-0.91 0.8-1.85 1.58-2.81 2.32l10.02 10.22c0.3-0.24 0.61-0.49 0.91-0.74l-8.12-11.8zm-83.61-8.06l-10.22 10.02c0.24 0.3 0.49 0.61 0.74 0.91l11.8-8.12c-0.8-0.91-1.58-1.85-2.32-2.81zm80.53 10.57c-0.96 0.73-1.95 1.44-2.95 2.11l9.28 10.9c0.32-0.22 0.64-0.45 0.96-0.68l-7.29-12.33zm-76.58-5.98l-9.11 11.05c0.27 0.28 0.55 0.54 0.83 0.81l10.87-9.29c-0.89-0.83-1.75-1.69-2.59-2.57zm71.56 9.41c-1.04 0.64-2.08 1.25-3.17 1.82l8.12 11.8c0.34-0.19 0.68-0.37 1.02-0.56l-5.97-13.06zm-68.72-6.62l-8.33 11.64c0.29 0.25 0.58 0.51 0.87 0.76l10.22-10.02c-0.95-0.77-1.86-1.56-2.76-2.38zm65.26 8.6c-1.07 0.55-2.16 1.07-3.27 1.56l7.26 12.33c0.35-0.17 0.69-0.34 1.04-0.51l-5.03-13.38zm-60.56-4.77l-7.07 12.5c0.32 0.22 0.65 0.41 0.97 0.63l9.08-11.06c-1.02-0.66-2.01-1.35-2.98-2.07zm55.05 7.24c-1.13 0.45-2.29 0.87-3.45 1.24l5.94 13.05c0.37-0.12 0.72-0.28 1.09-0.42l-3.58-13.87zm-51.79-4.97l-6.16 12.93c0.34 0.2 0.66 0.41 1 0.61l8.31-11.67c-1.07-0.59-2.13-1.22-3.15-1.87zm48.03 6.28c-1.16 0.37-2.32 0.73-3.51 1.02l5 13.38c0.38-0.1 0.77-0.17 1.15-0.28l-2.64-14.12zm-42.69-3.28l-4.8 13.5c0.34 0.16 0.69 0.32 1.04 0.47l7.06-12.49c-1.12-0.47-2.22-0.95-3.3-1.48zm36.79 4.81c-1.18 0.24-2.36 0.46-3.57 0.62l3.56 13.85c0.38-0.06 0.75-0.1 1.14-0.17l-1.13-14.3zm-33.18-3.18l-3.85 13.79c0.37 0.15 0.73 0.27 1.1 0.41l6.18-12.93c-1.16-0.39-2.3-0.81-3.43-1.27zm29.25 3.84c-1.2 0.16-2.4 0.24-3.62 0.32l2.59 14.11c0.39-0.03 0.78-0.07 1.17-0.11l-0.14-14.32zm-23.52-1.86l-2.39 14.13c0.38 0.1 0.76 0.2 1.15 0.3l4.74-13.51c-1.18-0.26-2.35-0.59-3.5-0.92zm17.45 2.31c-1.2 0.02-2.42 0-3.63-0.05l1.1 14.3c0.39 0.01 0.78 0 1.17 0l1.36-14.25zm-13.6-1.29l-1.39 14.22c0.38 0.08 0.77 0.15 1.15 0.22l3.83-13.8c-1.21-0.19-2.42-0.38-3.59-0.64zm9.64 1.23c-1.21-0.05-2.41-0.12-3.63-0.26l0.11 14.32c0.39 0.03 0.78 0.05 1.16 0.08l2.36-14.14z" fill="#800000"/>
        </g>
      </g>
      <g id="g4005" transform="matrix(1.1106 0 0 1.0125 -5.1596 -1.4953)">
        <path id="path4007" d="m-485.98-791.86h-63.29" transform="matrix(.76769 0 0 1 480.54 928.38)" stroke="#000" stroke-width="2.1781" fill="none"/>
        <rect id="rect4009" transform="matrix(.76769 0 -.016628 .99977 480.54 928.38)" height="515.47" width="63.029" y="-798.54" x="-566.28" fill="#1a1a1a"/>
        <path id="path4011" d="m-496.92-287.02h-63.29" transform="matrix(.76769 0 0 1 480.54 928.38)" stroke="#000" stroke-width="2.1781" fill="none"/>
        <path id="path4013" d="m-496.76-294.35h-63.29" transform="matrix(.76769 0 0 1 480.54 928.38)" stroke="#e6e1a0" stroke-width="2.1781" fill="none"/>
        <path id="path4015" d="m-496.59-302.22h-63.29" transform="matrix(.76769 0 0 1 480.54 928.38)" stroke="#e6e1a0" stroke-width="2.1781" fill="none"/>
        <path id="path4017" d="m-496.37-312.54h-63.28" transform="matrix(.76769 0 0 1 480.54 928.38)" stroke="#e6e1a0" stroke-width="2.1781" fill="none"/>
        <path id="path4019" d="m-496.1-325.15h-63.28" transform="matrix(.76769 0 0 1 480.54 928.38)" stroke="#e6e1a0" stroke-width="2.1781" fill="none"/>
        <path id="path4021" d="m-495.78-339.96h-63.28" transform="matrix(.76769 0 0 1 480.54 928.38)" stroke="#e6e1a0" stroke-width="2.1781" fill="none"/>
        <path id="path4023" d="m-495.41-356.9h-63.28" transform="matrix(.76769 0 0 1 480.54 928.38)" stroke="#e6e1a0" stroke-width="2.1781" fill="none"/>
        <path id="path4025" d="m-495-375.88h-63.28" transform="matrix(.76769 0 0 1 480.54 928.38)" stroke="#e6e1a0" stroke-width="2.1781" fill="none"/>
        <path id="path4027" d="m-494.54-396.87h-63.29" transform="matrix(.76769 0 0 1 480.54 928.38)" stroke="#e6e1a0" stroke-width="2.1781" fill="none"/>
        <path id="path4029" d="m-494.05-419.81h-63.28" transform="matrix(.76769 0 0 1 480.54 928.38)" stroke="#e6e1a0" stroke-width="2.1781" fill="none"/>
        <path id="path4031" d="m-493.51-444.66h-63.28" transform="matrix(.76769 0 0 1 480.54 928.38)" stroke="#e6e1a0" stroke-width="2.1781" fill="none"/>
        <path id="path4033" d="m-492.93-471.39h-63.28" transform="matrix(.76769 0 0 1 480.54 928.38)" stroke="#e6e1a0" stroke-width="2.1781" fill="none"/>
        <path id="path4035" d="m-492.31-499.96h-63.28" transform="matrix(.76769 0 0 1 480.54 928.38)" stroke="#e6e1a0" stroke-width="2.1781" fill="none"/>
        <path id="path4037" d="m-491.65-530.35h-63.29" transform="matrix(.76769 0 0 1 480.54 928.38)" stroke="#e6e1a0" stroke-width="2.1781" fill="none"/>
        <path id="path4039" d="m-490.95-562.52h-63.29" transform="matrix(.76769 0 0 1 480.54 928.38)" stroke="#e6e1a0" stroke-width="2.1781" fill="none"/>
        <path id="path4041" d="m-490.22-596.46h-63.28" transform="matrix(.76769 0 0 1 480.54 928.38)" stroke="#e6e1a0" stroke-width="2.1781" fill="none"/>
        <path id="path4043" d="m-489.45-632.14h-63.28" transform="matrix(.76769 0 0 1 480.54 928.38)" stroke="#e6e1a0" stroke-width="2.1781" fill="none"/>
        <path id="path4045" d="m-488.64-669.54h-63.28" transform="matrix(.76769 0 0 1 480.54 928.38)" stroke="#e6e1a0" stroke-width="2.1781" fill="none"/>
        <path id="path4047" d="m-487.79-708.63h-63.28" transform="matrix(.76769 0 0 1 480.54 928.38)" stroke="#e6e1a0" stroke-width="2.1781" fill="none"/>
        <path id="path4049" d="m-486.9-749.42h-63.29" transform="matrix(.76769 0 0 1 480.54 928.38)" stroke="#e6e1a0" stroke-width="2.1781" fill="none"/>
        <path id="path4051" d="m-550.21-791.86h63.29" transform="matrix(.76769 0 0 1 480.54 928.38)" stroke="#000" stroke-width="2.1781" fill="none"/>
        <rect id="rect4053" transform="matrix(-.76769 0 .016628 .99977 480.54 928.38)" height="515.47" width="63.029" y="-798.54" x="469.91" fill="#1a1a1a"/>
        <path id="path4055" d="m-539.27-287.02h63.29" transform="matrix(.76769 0 0 1 480.54 928.38)" stroke="#000" stroke-width="2.1781" fill="none"/>
        <path id="path4057" d="m-539.43-294.35h63.29" fill-rule="evenodd" transform="matrix(.76769 0 0 1 480.54 928.38)" stroke="#e6e1a0" stroke-width="2.1781" fill="#808000"/>
        <path id="path4059" d="m-539.6-302.22h63.29" fill-rule="evenodd" transform="matrix(.76769 0 0 1 480.54 928.38)" stroke="#e6e1a0" stroke-width="2.1781" fill="#808000"/>
        <path id="path4061" d="m-539.82-312.54h63.28" fill-rule="evenodd" transform="matrix(.76769 0 0 1 480.54 928.38)" stroke="#e6e1a0" stroke-width="2.1781" fill="#808000"/>
        <path id="path4063" d="m-540.1-325.15h63.29" fill-rule="evenodd" transform="matrix(.76769 0 0 1 480.54 928.38)" stroke="#e6e1a0" stroke-width="2.1781" fill="#808000"/>
        <path id="path4065" d="m-540.42-339.96h63.29" fill-rule="evenodd" transform="matrix(.76769 0 0 1 480.54 928.38)" stroke="#e6e1a0" stroke-width="2.1781" fill="#808000"/>
        <path id="path4067" d="m-540.78-356.9h63.28" fill-rule="evenodd" transform="matrix(.76769 0 0 1 480.54 928.38)" stroke="#e6e1a0" stroke-width="2.1781" fill="#808000"/>
        <path id="path4069" d="m-541.2-375.88h63.29" fill-rule="evenodd" transform="matrix(.76769 0 0 1 480.54 928.38)" stroke="#e6e1a0" stroke-width="2.1781" fill="#808000"/>
        <path id="path4071" d="m-541.65-396.87h63.29" fill-rule="evenodd" transform="matrix(.76769 0 0 1 480.54 928.38)" stroke="#e6e1a0" stroke-width="2.1781" fill="#808000"/>
        <path id="path4073" d="m-542.15-419.81h63.29" fill-rule="evenodd" transform="matrix(.76769 0 0 1 480.54 928.38)" stroke="#e6e1a0" stroke-width="2.1781" fill="#808000"/>
        <path id="path4075" d="m-542.69-444.66h63.29" fill-rule="evenodd" transform="matrix(.76769 0 0 1 480.54 928.38)" stroke="#e6e1a0" stroke-width="2.1781" fill="#808000"/>
        <path id="path4077" d="m-543.26-471.39h63.28" fill-rule="evenodd" transform="matrix(.76769 0 0 1 480.54 928.38)" stroke="#e6e1a0" stroke-width="2.1781" fill="#808000"/>
        <path id="path4079" d="m-543.88-499.96h63.28" fill-rule="evenodd" transform="matrix(.76769 0 0 1 480.54 928.38)" stroke="#e6e1a0" stroke-width="2.1781" fill="#808000"/>
        <path id="path4081" d="m-544.54-530.35h63.28" fill-rule="evenodd" transform="matrix(.76769 0 0 1 480.54 928.38)" stroke="#e6e1a0" stroke-width="2.1781" fill="#808000"/>
        <path id="path4083" d="m-545.24-562.52h63.29" fill-rule="evenodd" transform="matrix(.76769 0 0 1 480.54 928.38)" stroke="#e6e1a0" stroke-width="2.1781" fill="#808000"/>
        <path id="path4085" d="m-545.97-596.46h63.28" fill-rule="evenodd" transform="matrix(.76769 0 0 1 480.54 928.38)" stroke="#e6e1a0" stroke-width="2.1781" fill="#808000"/>
        <path id="path4087" d="m-546.75-632.14h63.29" fill-rule="evenodd" transform="matrix(.76769 0 0 1 480.54 928.38)" stroke="#e6e1a0" stroke-width="2.1781" fill="#808000"/>
        <path id="path4089" d="m-547.56-669.54h63.29" fill-rule="evenodd" transform="matrix(.76769 0 0 1 480.54 928.38)" stroke="#e6e1a0" stroke-width="2.1781" fill="#808000"/>
        <path id="path4091" d="m-548.4-708.63h63.28" fill-rule="evenodd" transform="matrix(.76769 0 0 1 480.54 928.38)" stroke="#e6e1a0" stroke-width="2.1781" fill="#808000"/>
        <path id="path4093" d="m-549.29-749.42h63.29" fill-rule="evenodd" transform="matrix(.76769 0 0 1 480.54 928.38)" stroke="#e6e1a0" stroke-width="2.1781" fill="#808000"/>
        <rect id="rect4095" height="4.9343" width="50.33" y="128.31" x="57.648" fill="#ffe6d5"/>
      </g>
      <path id="path4097" fill="#1a1a1a" d="m16.025 827.76v26.76l16.089 2.2c3.472 0.47 2.813 6.48 6.315 6.48h99.761c3.5 0 2.84-6.01 6.31-6.48l16.09-2.2v-26.76h-144.56z"/>
      <rect id="rect2716" ry="1.2499" rx=".96701" transform="matrix(.99948 -.032270 .026286 .99965 0 0)" height="2.8569" width="90.899" y="838.27" x="20.28" fill="#fff6d5"/>
      <path id="path4101" stroke="#f1c338" stroke-width="1.896" fill="none" d="m63.319 128.95l-10.485 726.69"/>
      <path id="path4103" stroke-linejoin="round" d="m-562.14 762.72a1.0714 1.0714 0 1 1 -2.15 0 1.0714 1.0714 0 1 1 2.15 0z" transform="matrix(3.4941 0 0 3.4463 2020.6 -1776.1)" stroke="#ffffe2" stroke-width="1.2"/>
      <path id="path4115" stroke="#f1c338" stroke-width="1.596" fill="none" d="m72.686 128.9c-5.821 726.73-5.821 726.73-5.821 726.73"/>
      <path id="path4105" stroke-linejoin="round" d="m-562.14 762.72a1.0714 1.0714 0 1 1 -2.15 0 1.0714 1.0714 0 1 1 2.15 0z" transform="matrix(3.4941 0 0 3.4463 2035.2 -1776.1)" stroke="#ffffe2" stroke-width="1.2"/>
      <path id="path4117" stroke="#f1c338" stroke-width="1.296" fill="none" d="m81.174 128.87c0.663 726.76 0.663 726.76 0.663 726.76"/>
      <path id="path4107" stroke-linejoin="round" d="m-562.14 762.72a1.0714 1.0714 0 1 1 -2.15 0 1.0714 1.0714 0 1 1 2.15 0z" transform="matrix(3.4941 0 0 3.4463 2049.7 -1776.1)" stroke="#ffffe2" stroke-width="1.2"/>
      <path id="path4119" stroke="#f1c338" stroke-width="1.096" fill="none" d="m90.348 128.9c6.088 726.73 6.088 726.73 6.088 726.73"/>
      <path id="path4109" stroke-linejoin="round" d="m-562.14 762.72a1.0714 1.0714 0 1 1 -2.15 0 1.0714 1.0714 0 1 1 2.15 0z" transform="matrix(3.4941 0 0 3.4463 2064.3 -1776.1)" stroke="#ffffe2" stroke-width="1.2"/>
      <path id="path4121" d="m101.43 128.93l9.37 726.7" stroke-opacity=".99216" stroke="#ebebeb" stroke-width=".896" fill="none"/>
      <path id="path4111" stroke-linejoin="round" d="m-562.14 762.72a1.0714 1.0714 0 1 1 -2.15 0 1.0714 1.0714 0 1 1 2.15 0z" transform="matrix(3.4941 0 0 3.4463 2078.8 -1776.1)" stroke="#ffffe2" stroke-width="1.2"/>
      <path id="path4123" stroke="#ebebeb" stroke-width=".796" fill="none" d="m111.29 128.65c14.21 726.62 14.21 726.62 14.21 726.62"/>
      <path id="path4113" stroke-linejoin="round" d="m-562.14 762.72a1.0714 1.0714 0 1 1 -2.15 0 1.0714 1.0714 0 1 1 2.15 0z" transform="matrix(3.4941 0 0 3.4463 2093.4 -1776.1)" stroke="#ffffe2" stroke-width="1.2"/>
      <path id="path3616" stroke-linejoin="round" d="m-501.04 264.44a84.853 80.812 0 1 1 -169.7 0 84.853 80.812 0 1 1 169.7 0z" transform="matrix(-.11518 -.0065740 -.0066231 .12076 54.03 -39.587)" stroke="#fffffb" stroke-width="2.796" fill="url(#radialGradient3897)"/>
      <path id="path3622" stroke-linejoin="round" d="m-501.04 264.44a84.853 80.812 0 1 1 -169.7 0 84.853 80.812 0 1 1 169.7 0z" transform="matrix(-.11518 -.0065740 -.0066231 .12076 52.358 .86632)" stroke="#fffffb" stroke-width="2.796" fill="url(#radialGradient3897)"/>
      <path id="path3628" stroke-linejoin="round" d="m-501.04 264.44a84.853 80.812 0 1 1 -169.7 0 84.853 80.812 0 1 1 169.7 0z" transform="matrix(-.11518 -.0065740 -.0066231 .12076 50.938 42.077)" stroke="#fffffb" stroke-width="2.796" fill="url(#radialGradient3897)"/>
      <path id="path3644" d="m113.16 79.571c-1.06 49.389-1.82 48.879-1.82 48.879" stroke-opacity=".99216" stroke="#ebebeb" stroke-width=".90515px" fill="none"/>
      <path id="path3646" d="m115.44 35.124c-13.44 92.776-13.69 93.076-13.69 93.076" stroke-opacity=".99216" stroke="#ebebeb" stroke-width="1.2116px" fill="none"/>
      <path id="path3648" stroke="#f1c338" stroke-width="1.4" fill="none" d="m115.94-3.7669c-24.938 132.92-25.051 132.22-25.051 132.22"/>
      <path id="path2766" stroke-linejoin="round" d="m-501.04 264.44a84.853 80.812 0 1 1 -169.7 0 84.853 80.812 0 1 1 169.7 0z" transform="matrix(.11518 -.0065740 .0066231 .12076 119.11 -39.587)" stroke="#fffffb" stroke-width="2.796" fill="url(#radialGradient3897)"/>
      <path id="path2772" stroke-linejoin="round" d="m-501.04 264.44a84.853 80.812 0 1 1 -169.7 0 84.853 80.812 0 1 1 169.7 0z" transform="matrix(.11518 -.0065740 .0066231 .12076 120.78 .86632)" stroke="#fffffb" stroke-width="2.796" fill="url(#radialGradient3897)"/>
      <path id="path2778" stroke-linejoin="round" d="m-501.04 264.44a84.853 80.812 0 1 1 -169.7 0 84.853 80.812 0 1 1 169.7 0z" transform="matrix(.11518 -.0065740 .0066231 .12076 122.2 42.077)" stroke="#fffffb" stroke-width="2.796" fill="url(#radialGradient3897)"/>
      <path id="path2794" stroke="#f1c338" stroke-width="1.4" fill="none" d="m56.317-4.124c24.939 132.91 25.053 132.21 25.053 132.21"/>
      <path id="path2796" stroke="#f1c338" stroke-width="1.2116px" fill="none" d="m57.748 35.124c13.435 92.776 13.688 93.076 13.688 93.076"/>
      <path id="path2798" stroke="#f1c338" stroke-width=".90515px" fill="none" d="m59.38 78.678c3.74 49.562 3.783 49.772 3.783 49.772"/>
      <path id="path3618" stroke-linejoin="round" d="m-501.04 264.44a84.853 80.812 0 1 1 -169.7 0 84.853 80.812 0 1 1 169.7 0z" transform="matrix(-.046619 -.0026609 -.0026808 .048879 93.157 -18.333)" stroke="#fffffb" stroke-width="2.796" fill="url(#radialGradient3897)"/>
      <path id="path3624" stroke-linejoin="round" d="m-501.04 264.44a84.853 80.812 0 1 1 -169.7 0 84.853 80.812 0 1 1 169.7 0z" transform="matrix(-.046619 -.0026609 -.0026808 .048879 91.485 22.121)" stroke="#fffffb" stroke-width="2.796" fill="url(#radialGradient3897)"/>
      <path id="path3630" stroke-linejoin="round" d="m-501.04 264.44a84.853 80.812 0 1 1 -169.7 0 84.853 80.812 0 1 1 169.7 0z" transform="matrix(-.046619 -.0026609 -.0026808 .048879 90.065 63.332)" stroke="#fffffb" stroke-width="2.796" fill="url(#radialGradient3897)"/>
      <path id="path2780" stroke-linejoin="round" d="m-501.04 264.44a84.853 80.812 0 1 1 -169.7 0 84.853 80.812 0 1 1 169.7 0z" transform="matrix(.046619 -.0026609 .0026808 .048879 83.075 63.332)" stroke="#fffffb" stroke-width="2.796" fill="url(#radialGradient3897)"/>
      <path id="path2774" stroke-linejoin="round" d="m-501.04 264.44a84.853 80.812 0 1 1 -169.7 0 84.853 80.812 0 1 1 169.7 0z" transform="matrix(.046619 -.0026609 .0026808 .048879 81.656 22.121)" stroke="#fffffb" stroke-width="2.796" fill="url(#radialGradient3897)"/>
      <path id="path2768" stroke-linejoin="round" d="m-501.04 264.44a84.853 80.812 0 1 1 -169.7 0 84.853 80.812 0 1 1 169.7 0z" transform="matrix(.046619 -.0026609 .0026808 .048879 79.984 -18.333)" stroke="#fffffb" stroke-width="2.796" fill="url(#radialGradient3897)"/>
      <g id="g3740" transform="matrix(.13399 -.019269 .019269 .13399 163.96 -103.47)">
        <path id="text3735" d="m-755.52 311.55c10.97 0 18.92 1.87 23.87 5.61 5.08 3.74 7.63 7.48 7.63 11.23 0 1.41-1.01 4.4-3.01 8.95-3.21 6.47-7.23 12.13-12.04 16.99-4.81 4.75-8.83 7.94-12.04 9.55l-4.61 2.43c-0.67-1.52-1-2.33-1-2.43 0-0.4 0.13-0.7 0.4-0.91l4.01-2.73c2.81-1.72 6.22-4.75 10.23-9.1 4.01-4.45 7.22-9.25 9.63-14.41 1.2-2.83 1.81-5.61 1.81-8.34 0-3.75-1.54-6.93-4.62-9.56-2.94-2.63-8.02-3.95-15.24-3.95-6.69 0-12.91 1.02-18.66 3.04-5.62 1.92-10.3 4.5-14.04 7.74-3.75 3.13-6.75 6.22-9.03 9.25-2.27 2.93-4.21 5.97-5.82 9.1-0.8 1.82-1.53 3.74-2.2 5.77-0.67 2.02-1.27 4.09-1.81 6.22-0.53 2.02-1.07 4.7-1.6 8.04-0.4 3.33-0.74 7.18-1.01 11.52 0 4.45 1.14 8.4 3.41 11.84 2.41 3.33 5.42 5.81 9.03 7.43 3.75 1.62 7.29 2.83 10.63 3.64 3.48 0.71 6.76 1.06 9.83 1.06 11.1 0 20.66-4.95 28.69-14.86 3.74-5.46 6.48-10.22 8.22-14.26 0.81-1.62 1.54-3.24 2.21-4.86 0.67-1.72 1.14-2.83 1.4-3.34 0.67-1.11 1.81-1.66 3.41-1.66 1.34 0 2.55 0.45 3.62 1.36 1.2 0.91 1.8 2.18 1.8 3.79-0.27 2.23-0.8 4.2-1.6 5.92-0.81 1.62-1.74 3.29-2.81 5.01-0.4 0.81-2.08 3.13-5.02 6.97-2.81 4.76-8.49 16.08-17.05 33.99-8.42 18-13.31 28.16-14.64 30.49-4.15 7.58-8.7 12.84-13.64 15.77-5.62 2.84-12.37 4.25-20.26 4.25-6.29 0-13.24-1.67-20.87-5.01-10.43-4.34-15.64-9.8-15.64-16.38 0-5.86 3.61-8.8 10.83-8.8 6.15 0 11.5 1.72 16.05 5.16 0.26 0.2 1.74 2.02 4.41 5.46 0.8 1.01 1.34 2.33 1.61 3.95l-0.61 0.45c-0.53 0.3-1.2 0.56-2 0.76-0.67 0.3-1.47 0.45-2.41 0.45-1.47 0-2.61-0.35-3.41-1.06 0-0.6 0.07-1.41 0.2-2.42 0.13-1.02 0.2-1.72 0.2-2.13 0-1.62-0.8-3.44-2.41-5.46-0.66-0.91-1.94-1.67-3.81-2.27-1.74-0.61-3.41-0.92-5.01-0.92-1.87 0-3.48 1.07-4.82 3.19-1.33 2.12-2 4.45-2 6.98 0 4.65 3.27 8.44 9.83 11.38 6.82 3.03 13.44 4.55 19.86 4.55 4.28 0 8.55-0.96 12.83-2.89 4.55-2.02 9.17-7.28 13.85-15.77 4.81-8.5 9.56-18.36 14.24-29.58 4.81-11.23 8.22-18.56 10.23-22-0.8 0.51-2.01 1.11-3.61 1.82-1.61 0.71-3.28 1.37-5.02 1.97-1.74 0.61-4.08 1.17-7.02 1.67-2.94 0.41-6.22 0.61-9.83 0.61s-7.15-0.3-10.63-0.91-7.09-1.67-10.83-3.19c-3.61-1.51-6.82-3.44-9.63-5.76-2.67-2.33-4.88-5.36-6.62-9.1-1.74-3.85-2.61-8.15-2.61-12.9 0-9.2 1.14-16.69 3.41-22.45 2.28-5.87 5.62-11.48 10.03-16.84 1.07-1.31 2.68-2.88 4.82-4.7 2.27-1.82 5.21-3.89 8.82-6.22s8.03-4.25 13.24-5.77c5.35-1.61 10.77-2.42 16.25-2.42m93.88 49.15c0 3.74-1.13 7.58-3.41 11.53-2.27 3.94-3.88 6.37-4.81 7.28-8.83 25.48-18.32 48.9-28.49 70.24-6.68 11.52-16.11 17.29-28.28 17.29-2.14 0-3.95-0.1-5.42-0.3-1.6-0.11-3.34-0.41-5.21-0.91-2.01-0.51-3.48-1.42-4.42-2.74-1.07-1.21-1.6-2.78-1.6-4.7 0-2.32 0.33-4.14 1-5.46 0.67-1.31 2.01-2.88 4.01-4.7 2.01-1.82 4.82-4.35 8.43-7.59 2.67-2.52 5.41-5 8.22-7.43 2.95-2.43 5.95-5.11 9.03-8.04 3.21-2.83 7.36-6.83 12.44-11.98-5.49 5.86-11.44 12.03-17.86 18.5-6.28 6.58-10.23 10.77-11.83 12.59-1.74 1.93-3.21 4.05-4.41 6.38-1.34 2.32-2.01 4.75-2.01 7.28 0 2.02 0.87 3.64 2.61 4.85 1.74 1.32 3.88 1.97 6.42 1.97 3.61 0 7.15-0.81 10.63-2.42 3.74-1.82 7.55-6.07 11.43-12.75 3.88-6.67 7.36-14.31 10.43-22.9 3.21-8.6 6.82-17.85 10.84-27.76-1.48 0.91-3.95 1.61-7.43 2.12-3.47 0.51-6.35 0.76-8.62 0.76-9.1 0-14.38-5.97-15.85-17.9-1.34 0.6-2.67 1.77-4.01 3.49-0.4 0.5-0.87 1.16-1.41 1.97-0.53 0.81-0.87 1.31-1 1.52 0.13-0.31 0.27-0.86 0.4-1.67 0.14-0.81 0.34-1.57 0.6-2.28 0.27-0.71 0.67-1.31 1.21-1.82 0.27-0.4 0.8-1.01 1.6-1.82 0.8-0.91 1.61-1.82 2.41-2.73 0.27-1.11 0.67-2.38 1.2-3.79 0.67-1.52 1.14-2.68 1.41-3.49 2-5.87 3.74-9.96 5.21-12.29 1.47-2.43 3.81-3.64 7.02-3.64 1.07 0 1.88 0.05 2.41 0.15 2.27 0 3.41 1.06 3.41 3.19 0 0.91-0.2 2.07-0.6 3.49-0.4 1.41-1.61 3.54-3.61 6.37-1.87 2.73-4.35 5.31-7.42 7.74-1.61 3.74-2.41 7.38-2.41 10.92 0 6.98 3.28 10.46 9.83 10.46 6.42 0 12.84-4.5 19.26-13.5 0.67-1.61 1.73-4.5 3.21-8.64 1.6-4.15 3.07-7.74 4.41-10.77 1.34-3.14 2.61-5.72 3.81-7.74 1.07-1.01 2.07-1.62 3.01-1.82 1.74 0 2.87 0.25 3.41 0.76 0.53 0.4 0.8 1.31 0.8 2.73m-37.71 0.15c-0.94 0.51-1.81 1.52-2.61 3.03-0.67 1.52-1.4 3.34-2.2 5.46-0.81 2.13-1.34 3.49-1.61 4.1 1.74-1.42 3.34-3.34 4.81-5.76 1.48-2.43 2.21-4.3 2.21-5.62 0-0.6-0.2-1.01-0.6-1.21m99.5 6.98c0 3.84-1.07 8.29-3.21 13.35-2.01 5.05-5.08 9.5-9.23 13.35 0.53 0.2 1.2 0.3 2.01 0.3 2.54 0 6.08-1.31 10.63-3.94-3.61 4.04-8.09 6.06-13.44 6.06-0.8 0-1.34-0.05-1.61-0.15-0.53 0.81-2.14 1.87-4.81 3.19-2.54 1.21-4.95 1.82-7.22 1.82-2.28 0-4.22-0.56-5.82-1.67-1.61-1.21-2.41-2.28-2.41-3.19 0-2.12 0.67-3.89 2.01-5.31 1.47-1.51 3.61-2.27 6.42-2.27 2.94 0 6.15 1.21 9.63 3.64 1.87-2.73 3.81-6.62 5.81-11.68 2.01-5.16 3.01-9.71 3.01-13.65 0-5.46-1.74-8.2-5.21-8.2-1.74 0-3.61 0.46-5.62 1.37s-4.01 2.17-6.02 3.79c-2 1.62-3.94 3.34-5.82 5.16-1.73 1.72-3.47 3.64-5.21 5.76-1.74 2.03-3.14 3.75-4.21 5.16-1.07 1.42-2.08 2.83-3.01 4.25l-1.61 2.12c-0.67 7.49-4.54 20.33-11.63 38.54-6.96 18.3-12.57 30.13-16.85 35.49-2.54 3.54-5.02 5.31-7.42 5.31-1.74 0-3.15-0.6-4.22-1.82-1.07-1.11-1.6-2.48-1.6-4.09 0-0.61 0.47-2.68 1.4-6.22 0.8-3.44 2.41-8.65 4.82-15.63 2.27-6.88 6.28-15.72 12.03-26.55 5.75-10.72 12.57-21.74 20.46-33.07 0.54-1.41 1.21-4.45 2.01-9.1 0.94-4.65 1.4-7.73 1.4-9.25 0-0.51-0.33-0.76-1-0.76-0.8 0.2-1.74 1.87-2.81 5.01-0.93 3.13-2.67 7.28-5.21 12.43-2.41 5.06-5.62 9.56-9.63 13.51 3.61-4.15 7.02-10.72 10.23-19.72 3.34-9.01 5.68-13.51 7.02-13.51 0-0.1 0.67-0.15 2.01-0.15 1.2 0 1.8 1.22 1.8 3.64 0 4.86-0.73 9.91-2.21 15.17 3.62-5.15 7.63-9.25 12.04-12.28 4.41-3.04 7.96-4.91 10.63-5.62 2.68-0.71 5.08-1.06 7.22-1.06 3.75 0 7.09 0.76 10.03 2.28 2.95 1.51 4.42 4.24 4.42 8.19m-48.55 23.81c-7.75 10.83-14.71 23.77-20.86 38.84s-9.23 24.22-9.23 27.46c0.54 0.2 0.87 0.3 1 0.3 1.74 0 4.82-4.9 9.23-14.71 4.42-9.71 8.29-19.52 11.64-29.43 3.47-9.91 6.22-17.4 8.22-22.46m22.47-0.15c-3.75 0-5.62 1.82-5.62 5.46 0 1.42 1.54 2.23 4.62 2.43 1.47 0 2.74-0.2 3.81-0.61 1.07-0.4 1.87-0.91 2.4-1.51 0.67-0.71 1.48-1.47 2.41-2.28-1.07-0.81-2.47-1.57-4.21-2.27-1.61-0.81-2.74-1.22-3.41-1.22m54.16-34.13h0.2c1.07 0 3.41 1.62 7.02 4.85 0.67 3.44 1.21 5.67 1.61 6.68 0.53 1.42 2.2 4.25 5.01 8.49 2.94 4.15 4.48 7.74 4.62 10.78-0.14 4.95-2.48 8.49-7.02 10.61-4.42 2.03-9.3 3.04-14.65 3.04-4.01 0-7.42-0.51-10.23-1.52-2.81-1.11-4.81-2.27-6.02-3.49-1.2-1.21-2.07-2.37-2.6-3.49l-0.61-1.51c0-0.51 0.07-1.01 0.2-1.52 0.14 0 0.54-0.05 1.21-0.15 0.8-0.2 1.33-0.31 1.6-0.31 1.61 0 3.88 0.61 6.82 1.82 0.81 0.61 1.21 1.17 1.21 1.67 0 0.51-0.54 1.12-1.61 1.82-1.07 0.71-1.6 1.27-1.6 1.67 0 0.81 0.93 1.52 2.81 2.13 1.87 0.5 3.94 0.75 6.21 0.75 3.08 0 6.42-0.96 10.03-2.88s5.42-5 5.42-9.25c0-3.74-2.67-8.8-8.02-15.17-0.81-0.91-1.41-1.82-1.81-2.73-0.27-1.01-0.47-1.52-0.6-1.52l-11.03 7.89-8.83 7.89c1.47-1.72 2.81-3.29 4.01-4.7 1.2-1.52 1.87-2.38 2.01-2.58 0.26-0.31 0.6-0.66 1-1.07l0.6-0.75c0.14 0 0.54-0.36 1.21-1.07 0.8-0.7 1.67-1.51 2.6-2.42 1.88-1.72 3.81-4 5.82-6.83 0.4-0.51 0.94-1.77 1.61-3.79 0.66-2.13 1.27-3.24 1.8-3.34m81.85 3.34c0 3.74-1.14 7.58-3.41 11.53-2.28 3.94-3.88 6.37-4.82 7.28-8.83 25.48-18.32 48.9-28.48 70.24-6.69 11.52-16.12 17.29-28.29 17.29-2.14 0-3.94-0.1-5.41-0.3-1.61-0.11-3.35-0.41-5.22-0.91-2.01-0.51-3.48-1.42-4.41-2.74-1.07-1.21-1.61-2.78-1.61-4.7 0-2.32 0.34-4.14 1-5.46 0.67-1.31 2.01-2.88 4.02-4.7 2-1.82 4.81-4.35 8.42-7.59 2.68-2.52 5.42-5 8.23-7.43 2.94-2.43 5.95-5.11 9.02-8.04 3.21-2.83 7.36-6.83 12.44-11.98-5.48 5.86-11.43 12.03-17.85 18.5-6.29 6.58-10.23 10.77-11.84 12.59-1.74 1.93-3.21 4.05-4.41 6.38-1.34 2.32-2.01 4.75-2.01 7.28 0 2.02 0.87 3.64 2.61 4.85 1.74 1.32 3.88 1.97 6.42 1.97 3.61 0 7.15-0.81 10.63-2.42 3.75-1.82 7.56-6.07 11.44-12.75 3.87-6.67 7.35-14.31 10.43-22.9 3.21-8.6 6.82-17.85 10.83-27.76-1.47 0.91-3.95 1.61-7.42 2.12-3.48 0.51-6.36 0.76-8.63 0.76-9.09 0-14.38-5.97-15.85-17.9-1.33 0.6-2.67 1.77-4.01 3.49-0.4 0.5-0.87 1.16-1.4 1.97-0.54 0.81-0.87 1.31-1.01 1.52 0.14-0.31 0.27-0.86 0.41-1.67 0.13-0.81 0.33-1.57 0.6-2.28s0.67-1.31 1.2-1.82c0.27-0.4 0.8-1.01 1.61-1.82l2.4-2.73c0.27-1.11 0.67-2.38 1.21-3.79 0.67-1.52 1.13-2.68 1.4-3.49 2.01-5.87 3.75-9.96 5.22-12.29 1.47-2.43 3.81-3.64 7.02-3.64 1.07 0 1.87 0.05 2.4 0.15 2.28 0 3.42 1.06 3.42 3.19 0 0.91-0.21 2.07-0.61 3.49-0.4 1.41-1.6 3.54-3.61 6.37-1.87 2.73-4.34 5.31-7.42 7.74-1.6 3.74-2.41 7.38-2.41 10.92 0 6.98 3.28 10.46 9.83 10.46 6.42 0 12.84-4.5 19.26-13.5 0.67-1.61 1.74-4.5 3.21-8.64 1.6-4.15 3.08-7.74 4.41-10.77 1.34-3.14 2.61-5.72 3.81-7.74 1.07-1.01 2.08-1.62 3.01-1.82 1.74 0 2.88 0.25 3.41 0.76 0.54 0.4 0.81 1.31 0.81 2.73m-37.72 0.15c-0.93 0.51-1.8 1.52-2.6 3.03-0.67 1.52-1.41 3.34-2.21 5.46-0.8 2.13-1.34 3.49-1.61 4.1 1.74-1.42 3.35-3.34 4.82-5.76 1.47-2.43 2.2-4.3 2.2-5.62 0-0.6-0.2-1.01-0.6-1.21" fill="#fbff00"/>
      </g>
    </g>
  </g>
  <metadata>
    <rdf:RDF>
      <cc:Work>
        <dc:format>image/svg+xml</dc:format>
        <dc:type rdf:resource="http://purl.org/dc/dcmitype/StillImage"/>
        <cc:license rdf:resource="http://creativecommons.org/licenses/publicdomain/"/>
        <dc:publisher>
          <cc:Agent rdf:about="http://openclipart.org/">
            <dc:title>Openclipart</dc:title>
          </cc:Agent>
        </dc:publisher>
        <dc:title>acoustic sunburst</dc:title>
        <dc:date>2008-05-10T19:10:38</dc:date>
        <dc:description>acoustic guitar with a sunburst finish</dc:description>
        <dc:source>http://openclipart.org/detail/16707/acoustic-sunburst-by-narrowhouse</dc:source>
        <dc:creator>
          <cc:Agent>
            <dc:title>narrowhouse</dc:title>
          </cc:Agent>
        </dc:creator>
        <dc:subject>
          <rdf:Bag>
            <rdf:li>acoustic</rdf:li>
            <rdf:li>clip art</rdf:li>
            <rdf:li>clipart</rdf:li>
            <rdf:li>guitar</rdf:li>
            <rdf:li>image</rdf:li>
            <rdf:li>instrument</rdf:li>
            <rdf:li>media</rdf:li>
            <rdf:li>music</rdf:li>
            <rdf:li>musical</rdf:li>
            <rdf:li>png</rdf:li>
            <rdf:li>public domain</rdf:li>
            <rdf:li>svg</rdf:li>
          </rdf:Bag>
        </dc:subject>
      </cc:Work>
      <cc:License rdf:about="http://creativecommons.org/licenses/publicdomain/">
        <cc:permits rdf:resource="http://creativecommons.org/ns#Reproduction"/>
        <cc:permits rdf:resource="http://creativecommons.org/ns#Distribution"/>
        <cc:permits rdf:resource="http://creativecommons.org/ns#DerivativeWorks"/>
      </cc:License>
    </rdf:RDF>
  </metadata>
</svg>
